<mxfile host="app.diagrams.net" modified="2024-06-06T19:52:03.927Z" agent="Mozilla/5.0 (Macintosh; Intel Mac OS X 10_15_7) AppleWebKit/605.1.15 (KHTML, like Gecko) Version/17.0 Safari/605.1.15" etag="4n6aGfNKERgPDv_N3MnE" version="24.4.15" type="github">
  <diagram name="Страница — 1" id="Mmt49PfAmUUD6BtU_sEv">
    <mxGraphModel dx="1647" dy="579" grid="1" gridSize="10" guides="1" tooltips="1" connect="1" arrows="1" fold="1" page="1" pageScale="1" pageWidth="827" pageHeight="1169" math="0" shadow="0">
      <root>
        <mxCell id="0" />
        <mxCell id="1" parent="0" />
        <mxCell id="HtdtYxYUlO2KyavMWP_j-6" style="edgeStyle=orthogonalEdgeStyle;rounded=0;orthogonalLoop=1;jettySize=auto;html=1;startArrow=ERmandOne;startFill=0;endArrow=ERmandOne;endFill=0;" edge="1" parent="1" source="wgMiWjdYJrQva8xjQtmw-7" target="wgMiWjdYJrQva8xjQtmw-14">
          <mxGeometry relative="1" as="geometry">
            <mxPoint x="530" y="470" as="targetPoint" />
          </mxGeometry>
        </mxCell>
        <mxCell id="HtdtYxYUlO2KyavMWP_j-8" style="edgeStyle=orthogonalEdgeStyle;rounded=0;orthogonalLoop=1;jettySize=auto;html=1;endArrow=ERzeroToMany;endFill=0;startArrow=ERone;startFill=0;" edge="1" parent="1" source="wgMiWjdYJrQva8xjQtmw-7" target="wgMiWjdYJrQva8xjQtmw-10">
          <mxGeometry relative="1" as="geometry">
            <Array as="points">
              <mxPoint x="369" y="480" />
              <mxPoint x="270" y="480" />
            </Array>
          </mxGeometry>
        </mxCell>
        <mxCell id="wgMiWjdYJrQva8xjQtmw-7" value="Пользователь" style="rounded=0;whiteSpace=wrap;html=1;" parent="1" vertex="1">
          <mxGeometry x="330" y="581.25" width="90" height="32.5" as="geometry" />
        </mxCell>
        <mxCell id="HtdtYxYUlO2KyavMWP_j-5" style="edgeStyle=orthogonalEdgeStyle;rounded=0;orthogonalLoop=1;jettySize=auto;html=1;startArrow=ERmandOne;startFill=0;endArrow=ERmany;endFill=0;" edge="1" parent="1" source="wgMiWjdYJrQva8xjQtmw-8" target="wgMiWjdYJrQva8xjQtmw-10">
          <mxGeometry relative="1" as="geometry">
            <Array as="points">
              <mxPoint x="130" y="500" />
              <mxPoint x="240" y="500" />
            </Array>
          </mxGeometry>
        </mxCell>
        <mxCell id="HtdtYxYUlO2KyavMWP_j-10" style="edgeStyle=orthogonalEdgeStyle;rounded=0;orthogonalLoop=1;jettySize=auto;html=1;entryX=0.5;entryY=0;entryDx=0;entryDy=0;startArrow=ERmandOne;startFill=0;endArrow=ERzeroToMany;endFill=0;" edge="1" parent="1" source="wgMiWjdYJrQva8xjQtmw-8" target="HtdtYxYUlO2KyavMWP_j-9">
          <mxGeometry relative="1" as="geometry" />
        </mxCell>
        <mxCell id="wgMiWjdYJrQva8xjQtmw-8" value="Адрес" style="rounded=0;whiteSpace=wrap;html=1;" parent="1" vertex="1">
          <mxGeometry x="90" y="520" width="80" height="25" as="geometry" />
        </mxCell>
        <mxCell id="HtdtYxYUlO2KyavMWP_j-2" style="edgeStyle=orthogonalEdgeStyle;rounded=0;orthogonalLoop=1;jettySize=auto;html=1;exitX=1;exitY=0.5;exitDx=0;exitDy=0;entryX=0;entryY=0.5;entryDx=0;entryDy=0;endArrow=ERone;endFill=0;startArrow=ERone;startFill=0;" edge="1" parent="1" source="wgMiWjdYJrQva8xjQtmw-9" target="wgMiWjdYJrQva8xjQtmw-10">
          <mxGeometry relative="1" as="geometry" />
        </mxCell>
        <mxCell id="wgMiWjdYJrQva8xjQtmw-9" value="Платёж" style="rounded=0;whiteSpace=wrap;html=1;" parent="1" vertex="1">
          <mxGeometry x="-10" y="440" width="80" height="25" as="geometry" />
        </mxCell>
        <mxCell id="HtdtYxYUlO2KyavMWP_j-13" style="edgeStyle=orthogonalEdgeStyle;rounded=0;orthogonalLoop=1;jettySize=auto;html=1;entryX=0.5;entryY=1;entryDx=0;entryDy=0;endArrow=ERzeroToMany;endFill=0;startArrow=ERone;startFill=0;" edge="1" parent="1" source="wgMiWjdYJrQva8xjQtmw-10" target="wgMiWjdYJrQva8xjQtmw-11">
          <mxGeometry relative="1" as="geometry" />
        </mxCell>
        <mxCell id="wgMiWjdYJrQva8xjQtmw-10" value="Заказ" style="rounded=0;whiteSpace=wrap;html=1;" parent="1" vertex="1">
          <mxGeometry x="230" y="440" width="80" height="25" as="geometry" />
        </mxCell>
        <mxCell id="wgMiWjdYJrQva8xjQtmw-11" value="Отслеживание" style="rounded=0;whiteSpace=wrap;html=1;" parent="1" vertex="1">
          <mxGeometry x="220" y="330" width="100" height="30" as="geometry" />
        </mxCell>
        <mxCell id="HtdtYxYUlO2KyavMWP_j-12" style="edgeStyle=orthogonalEdgeStyle;rounded=0;orthogonalLoop=1;jettySize=auto;html=1;entryX=1;entryY=0.5;entryDx=0;entryDy=0;startArrow=ERone;startFill=0;endArrow=ERzeroToMany;endFill=0;" edge="1" parent="1" source="wgMiWjdYJrQva8xjQtmw-14" target="wgMiWjdYJrQva8xjQtmw-10">
          <mxGeometry relative="1" as="geometry" />
        </mxCell>
        <mxCell id="HtdtYxYUlO2KyavMWP_j-16" style="edgeStyle=orthogonalEdgeStyle;rounded=0;orthogonalLoop=1;jettySize=auto;html=1;startArrow=ERmandOne;startFill=0;endArrow=ERzeroToMany;endFill=0;" edge="1" parent="1" source="wgMiWjdYJrQva8xjQtmw-14" target="HtdtYxYUlO2KyavMWP_j-14">
          <mxGeometry relative="1" as="geometry" />
        </mxCell>
        <mxCell id="wgMiWjdYJrQva8xjQtmw-14" value="Корзина" style="rounded=0;whiteSpace=wrap;html=1;" parent="1" vertex="1">
          <mxGeometry x="480" y="440" width="80" height="25" as="geometry" />
        </mxCell>
        <mxCell id="HtdtYxYUlO2KyavMWP_j-18" style="edgeStyle=orthogonalEdgeStyle;rounded=0;orthogonalLoop=1;jettySize=auto;html=1;endArrow=ERone;endFill=0;startArrow=ERzeroToMany;startFill=0;" edge="1" parent="1" source="wgMiWjdYJrQva8xjQtmw-15" target="wgMiWjdYJrQva8xjQtmw-19">
          <mxGeometry relative="1" as="geometry" />
        </mxCell>
        <mxCell id="HtdtYxYUlO2KyavMWP_j-20" style="edgeStyle=orthogonalEdgeStyle;rounded=0;orthogonalLoop=1;jettySize=auto;html=1;entryX=0.5;entryY=0;entryDx=0;entryDy=0;endArrow=ERzeroToMany;endFill=0;startArrow=ERmandOne;startFill=0;" edge="1" parent="1" source="wgMiWjdYJrQva8xjQtmw-15" target="HtdtYxYUlO2KyavMWP_j-14">
          <mxGeometry relative="1" as="geometry" />
        </mxCell>
        <mxCell id="wgMiWjdYJrQva8xjQtmw-15" value="Товар" style="rounded=0;whiteSpace=wrap;html=1;" parent="1" vertex="1">
          <mxGeometry x="480" y="267.5" width="80" height="25" as="geometry" />
        </mxCell>
        <mxCell id="wgMiWjdYJrQva8xjQtmw-19" value="Категоирии" style="rounded=0;whiteSpace=wrap;html=1;" parent="1" vertex="1">
          <mxGeometry x="710" y="267.5" width="80" height="25" as="geometry" />
        </mxCell>
        <mxCell id="HtdtYxYUlO2KyavMWP_j-19" style="edgeStyle=orthogonalEdgeStyle;rounded=0;orthogonalLoop=1;jettySize=auto;html=1;entryX=0.5;entryY=0;entryDx=0;entryDy=0;endArrow=ERmandOne;endFill=0;startArrow=ERmandOne;startFill=0;" edge="1" parent="1" source="6BoKyWhclUeG_ZjZ-14N-70" target="wgMiWjdYJrQva8xjQtmw-15">
          <mxGeometry relative="1" as="geometry" />
        </mxCell>
        <mxCell id="6BoKyWhclUeG_ZjZ-14N-70" value="Аренда" style="rounded=0;whiteSpace=wrap;html=1;" parent="1" vertex="1">
          <mxGeometry x="480" y="180" width="80" height="25" as="geometry" />
        </mxCell>
        <mxCell id="HtdtYxYUlO2KyavMWP_j-11" style="edgeStyle=orthogonalEdgeStyle;rounded=0;orthogonalLoop=1;jettySize=auto;html=1;entryX=0;entryY=0.5;entryDx=0;entryDy=0;endArrow=ERone;endFill=0;startArrow=ERzeroToMany;startFill=0;" edge="1" parent="1" source="HtdtYxYUlO2KyavMWP_j-9" target="wgMiWjdYJrQva8xjQtmw-7">
          <mxGeometry relative="1" as="geometry" />
        </mxCell>
        <mxCell id="HtdtYxYUlO2KyavMWP_j-9" value="Адреса_пользователи" style="rounded=0;whiteSpace=wrap;html=1;" vertex="1" parent="1">
          <mxGeometry x="110" y="585" width="150" height="25" as="geometry" />
        </mxCell>
        <mxCell id="HtdtYxYUlO2KyavMWP_j-14" value="Товар_корзина" style="rounded=0;whiteSpace=wrap;html=1;" vertex="1" parent="1">
          <mxGeometry x="470" y="350" width="100" height="25" as="geometry" />
        </mxCell>
      </root>
    </mxGraphModel>
  </diagram>
</mxfile>
